:SAMPLES-PER-SECOND 30
:FULLY-SPECIFIED
:DEGREES
457
root  8.71289 38.7653 -4.84917 27.3078 -86.8763 -35.8505
RightUpLeg  -1.62775 -11.8229 -3.07967
RightLeg  21.0841 6.14903 3.09126
RightFoot  -13.7412 0.0254326 5.61377
RightToes  5.82063e-011 0 -3.6325e-017
Spine  3.57992 -1.45591 13.6709
Spine1  11.8032 0.219736 -2.21744
HEad  -4.50269 1.2355 -5.8632
LeftShoulder1  0.171587 3.03089 -30.157
LeftArm  -8.75216 3.70799 -36.0983
LeftForeArm  24.8196 -72.6679 -37.2682
LeftHand  0.0660004 3.09473 -4.28189
RightShoulder  -0.344913 -4.56952 25.3008
RightArm  -6.76724 -7.49417 37.616
RightForeArm  59.7435 78.6785 87.5078
RightHand  -0.220722 1.4284 -3.89991
LeftUpLeg  -16.6495 3.63185 0.920959
LeftLeg  56.1032 -4.48177 -6.6798
LeftFoot  1.10234 0.455691 -4.23452
LeftToes  1.81573e-012 2.54609e-010 -3.45981e-011
458
root  7.56614 38.9757 -5.2142 10.2246 -86.4577 -18.8597
RightUpLeg  2.12736 -12.312 -4.17515
RightLeg  18.2842 6.17754 3.59131
RightFoot  -14.8925 0.0896555 6.17062
RightToes  5.82063e-011 0 -3.6325e-017
Spine  4.11323 -1.30665 13.0857
Spine1  11.0863 0.386374 -2.74676
HEad  -5.3628 0.894665 -5.36205
LeftShoulder1  0.163777 3.05286 -30.1991
LeftArm  -9.00094 3.33799 -35.6878
LeftForeArm  27.09 -73.3744 -39.1732
LeftHand  0.0664926 3.27175 -4.81686
RightShoulder  -0.344038 -4.56891 25.2316
RightArm  -7.08378 -7.65758 37.9786
RightForeArm  62.6246 78.6639 91.0126
RightHand  -0.255407 1.27773 -4.56947
LeftUpLeg  -17.6452 4.09261 -1.20644
LeftLeg  48.2932 -4.68494 -5.22227
LeftFoot  -0.121812 0.374152 -3.80804
LeftToes  1.81573e-012 2.54609e-010 -3.45981e-011
459
root  6.44264 39.139 -5.53759 3.77946 -86.1132 -12.036
RightUpLeg  5.08473 -11.9016 -4.40882
RightLeg  15.4856 5.43618 3.65758
RightFoot  -15.2115 0.087346 5.63167
RightToes  5.82063e-011 0 -3.6325e-017
Spine  4.27467 -1.10071 13.0028
Spine1  10.4314 0.593748 -3.60208
HEad  -5.78237 0.284751 -5.79085
LeftShoulder1  0.169068 3.0365 -30.0722
LeftArm  -9.64577 3.31825 -35.5553
LeftForeArm  29.385 -74.1698 -41.7402
LeftHand  0.0550153 3.44378 -4.62694
RightShoulder  -0.32636 -4.51867 25.0474
RightArm  -7.46284 -7.77477 38.4248
RightForeArm  65.935 78.6559 93.9204
RightHand  -0.213755 1.09691 -3.93042
LeftUpLeg  -18.1288 4.20781 -2.72095
LeftLeg  38.5539 -4.07931 -3.13728
LeftFoot  -0.496425 0.367053 -3.83978
LeftToes  1.81573e-012 2.54609e-010 -3.45981e-011
460
root  5.31926 39.2044 -5.78398 3.61644 -85.2399 -11.3066
RightUpLeg  7.5365 -11.4216 -3.94862
RightLeg  13.1843 4.06629 3.50637
RightFoot  -15.3424 0.0539111 4.52697
RightToes  5.82063e-011 0 -3.6325e-017
Spine  3.58291 -1.16164 13.5154
Spine1  10.6947 0.537536 -4.5559
HEad  -6.45357 0.368921 -5.61901
LeftShoulder1  0.178683 3.00476 -29.6869
LeftArm  -10.3356 3.17598 -35.7157
LeftForeArm  31.666 -74.9032 -44.4744
LeftHand  0.0436407 3.5356 -4.1614
RightShoulder  -0.36532 -4.62818 25.4721
RightArm  -7.58106 -7.07746 38.398
RightForeArm  66.7965 78.5826 95.8477
RightHand  -0.279023 1.3484 -4.94774
LeftUpLeg  -18.1752 3.11523 -3.71004
LeftLeg  27.6701 -3.12393 -1.42709
LeftFoot  0.422129 0.368218 -3.59706
LeftToes  1.81573e-012 2.54609e-010 -3.45981e-011
461
root  4.16044 39.1895 -6.0209 7.11349 -84.0734 -13.9099
RightUpLeg  9.58622 -10.8278 -2.78178
RightLeg  10.967 2.24437 3.18152
RightFoot  -15.6267 0.0283075 3.5775
RightToes  5.82063e-011 0 -3.6325e-017
Spine  2.38654 -1.23719 13.612
Spine1  10.9424 0.150653 -4.50339
HEad  -6.74416 0.821097 -5.86413
LeftShoulder1  0.143048 3.10778 -29.9942
LeftArm  -11.0154 2.90933 -35.6248
LeftForeArm  33.4329 -75.3414 -46.2784
LeftHand  0.0361387 3.82856 -4.51481
RightShoulder  -0.368212 -4.63979 25.3969
RightArm  -7.91246 -6.69714 38.5367
RightForeArm  68.3849 78.5882 96.777
RightHand  -0.217365 1.25337 -3.93456
LeftUpLeg  -17.8659 0.658987 -3.92851
LeftLeg  16.2771 -2.49154 -0.540331
LeftFoot  0.649249 0.358592 -3.45361
LeftToes  1.81573e-012 2.54609e-010 -3.45981e-011
462
root  2.92586 39.1106 -6.24863 11.5894 -83.1304 -17.5445
RightUpLeg  11.7986 -9.97533 -1.22219
RightLeg  8.54157 0.535489 2.81088
RightFoot  -15.8696 0.00854596 2.93404
RightToes  5.82063e-011 0 -3.6325e-017
Spine  0.673134 -1.2595 13.6319
Spine1  11.7155 -0.145957 -4.568
HEad  -6.53804 0.834742 -5.72551
LeftShoulder1  0.13036 3.1426 -29.9689
LeftArm  -11.4029 3.34612 -35.3369
LeftForeArm  36.4637 -76.0025 -49.2659
LeftHand  0.0490324 3.49223 -4.37117
RightShoulder  -0.351628 -4.59315 25.2337
RightArm  -8.21723 -6.62339 39.1507
RightForeArm  69.0055 78.5717 97.4214
RightHand  -0.222236 0.855785 -4.23384
LeftUpLeg  -17.3626 -1.62677 -3.6422
LeftLeg  5.87838 -1.81143 0.0807013
LeftFoot  0.676769 0.282934 -2.72576
LeftToes  1.81573e-012 2.54609e-010 -3.45981e-011
463
root  1.62781 38.9297 -6.52474 14.9087 -82.7052 -20.4589
RightUpLeg  13.8823 -9.14033 0.242024
RightLeg  7.5081 -0.775872 2.39605
RightFoot  -16.9192 0.00752948 2.51246
RightToes  5.82063e-011 0 -3.6325e-017
Spine  -0.289695 -1.07402 12.8378
Spine1  12.0264 -0.23519 -4.06567
HEad  -5.60648 0.465607 -4.69931
LeftShoulder1  0.118017 3.17514 -29.7951
LeftArm  -11.4859 3.46218 -34.9538
LeftForeArm  38.6725 -76.4765 -51.8685
LeftHand  0.0306893 3.88524 -4.28414
RightShoulder  -0.360107 -4.61286 25.4265
RightArm  -8.15205 -6.71388 39.1662
RightForeArm  68.7154 78.5501 97.5789
RightHand  -0.214425 0.466657 -4.31836
LeftUpLeg  -17.0298 -1.65111 -3.65357
LeftLeg  -1.25305 -1.72476 0.328172
LeftFoot  0.375599 0.343446 -3.37692
LeftToes  1.81573e-012 2.54609e-010 -3.45981e-011
464
root  0.222866 38.6615 -6.77901 16.6347 -83.2452 -22.5735
RightUpLeg  16.4087 -9.04214 0.528603
RightLeg  7.9076 -0.297551 2.45621
RightFoot  -18.5141 -0.0154494 1.77077
RightToes  5.82063e-011 0 -3.6325e-017
Spine  -0.383723 -0.703496 11.9397
Spine1  12.4046 0.163433 -3.98413
HEad  -4.9066 0.491292 -3.93718
LeftShoulder1  0.0510977 3.3616 -29.771
LeftArm  -11.4765 3.38878 -34.3155
LeftForeArm  41.2348 -76.9468 -54.7673
LeftHand  0.0247932 4.07535 -4.4661
RightShoulder  -0.407117 -4.75018 25.7184
RightArm  -7.87876 -7.06922 39.4478
RightForeArm  68.67 78.5334 97.8087
RightHand  -0.235428 0.671051 -4.60068
LeftUpLeg  -16.3895 -0.849562 -3.62109
LeftLeg  -3.74879 0.419571 -0.387705
LeftFoot  0.305009 0.506176 -4.9641
LeftToes  1.81573e-012 2.54609e-010 -3.45981e-011
